<svg width="505" height="474" viewBox="0 0 505 474" fill="none" xmlns="http://www.w3.org/2000/svg">
<g clip-path="url(#clip0_8_168)">
<path d="M237.59 0.260254L168.13 115.47L237.59 0.260254Z" stroke="black" stroke-miterlimit="10"/>
<path d="M504.41 183.75L503.76 186.95L358.61 272.42L348.38 263.99V158.22C348.38 153.26 346.36 148.76 343.09 145.5C339.83 142.24 335.32 140.21 330.37 140.21C320.46 140.21 312.35 148.31 312.35 158.22V234.31L168.12 115.47L237.59 0.260137L237.92 0.140137L504.41 183.75Z" fill="#FF8080"/>
<path d="M451.68 435.54L151.47 473.1L0.179993 352.08L168.12 115.47L312.35 234.31V272.23C312.35 282.13 320.46 290.24 330.37 290.24C340.28 290.24 348.38 282.13 348.38 272.23V263.99L358.61 272.42L451.68 435.54Z" fill="#FFE5E5"/>
<path d="M36.54 70.9202L0 351.93L0.18 352.08L168.13 115.47L36.54 70.9202Z" fill="#FF8080"/>
<path d="M503.76 186.95L358.61 272.42L451.68 435.54L453.01 435.37L503.76 186.95Z" fill="#FFB7B7"/>
<path d="M237.59 0.260254L36.59 70.5902L36.54 70.9202L168.13 115.47L237.59 0.260254Z" fill="#FFB7B7"/>
<path d="M188.94 140.21H188.93C178.983 140.21 170.92 148.273 170.92 158.22V272.24C170.92 282.187 178.983 290.25 188.93 290.25H188.94C198.887 290.25 206.95 282.187 206.95 272.24V158.22C206.95 148.273 198.887 140.21 188.94 140.21Z" fill="#B1D7FF"/>
<path d="M348.38 158.22V272.23C348.38 282.13 340.28 290.24 330.37 290.24C320.46 290.24 312.35 282.13 312.35 272.23V158.22C312.35 148.31 320.46 140.21 330.37 140.21C335.32 140.21 339.83 142.24 343.09 145.5C346.36 148.76 348.38 153.26 348.38 158.22Z" fill="#B1D7FF"/>
</g>
<defs>
<clipPath id="clip0_8_168">
<rect width="504.41" height="473.1" fill="white"/>
</clipPath>
</defs>
</svg>
