<svg width="505" height="474" viewBox="0 0 505 474" fill="none" xmlns="http://www.w3.org/2000/svg">
<path d="M458.184 153.675L457.654 156.284L339.331 225.957L330.992 219.085V132.863C330.992 128.82 329.345 125.152 326.68 122.494C324.022 119.837 320.346 118.182 316.311 118.182C308.232 118.182 301.621 124.785 301.621 132.863V194.89L184.048 98.0146L240.678 4.09782L240.947 4L458.184 153.675Z" fill="#FFE318"/>
<path d="M415.2 358.929L170.475 389.547L47.1466 290.894L184.048 98.0146L301.621 194.89V225.802C301.621 233.872 308.232 240.483 316.311 240.483C324.389 240.483 330.992 233.872 330.992 225.802V219.085L339.331 225.957L415.2 358.929Z" fill="#FCF72E"/>
<path d="M76.7866 61.6982L47 290.772L47.1467 290.894L184.056 98.0145L76.7866 61.6982Z" fill="#FFE318"/>
<path d="M457.655 156.283L339.331 225.957L415.2 358.929L416.284 358.79L457.655 156.283Z" fill="#F5D52D"/>
<path d="M240.678 4.09766L76.8274 61.4292L76.7866 61.6982L184.056 98.0144L240.678 4.09766Z" fill="#F5D52D"/>
<path d="M201.02 118.183H201.012C192.903 118.183 186.33 124.756 186.33 132.864V225.811C186.33 233.919 192.903 240.492 201.012 240.492H201.02C209.128 240.492 215.701 233.919 215.701 225.811V132.864C215.701 124.756 209.128 118.183 201.02 118.183Z" fill="#2770C8"/>
<path d="M330.992 132.864V225.803C330.992 233.873 324.389 240.484 316.311 240.484C308.232 240.484 301.621 233.873 301.621 225.803V132.864C301.621 124.786 308.232 118.183 316.311 118.183C320.346 118.183 324.022 119.837 326.68 122.495C329.345 125.152 330.992 128.821 330.992 132.864Z" fill="#2770C8"/>
<path d="M225.889 459.196C225.889 459.196 241.299 454.189 243.297 442.725C245.405 430.896 235.695 428.508 235.695 428.508C235.695 428.508 248.377 425.974 249.973 411.745C251.472 398.344 239.472 395.14 239.472 395.14C239.472 395.14 251.289 390.268 251.849 376.392C252.312 364.709 239.728 358.995 239.728 358.995C239.728 358.995 301.103 344.133 307.401 342.671C313.687 341.197 323.494 335.167 320.436 322.022C317.403 308.865 305.769 308.402 299.75 309.803C293.732 311.216 217.592 328.893 191.327 335.008C188.525 335.654 175.393 338.687 173.797 339.077C167.218 340.624 164.233 337.725 168.863 332.84C175.064 326.31 179.011 319.086 180.399 307.098C181.849 294.477 177.573 278.908 175.125 272.878C170.568 261.658 162.881 252.789 154 249.744C140.137 244.992 130.293 253.654 135.215 268.76C142.573 291.359 137.761 309.876 125.067 321.059C95.2324 347.337 81.3444 366.073 90.5909 406.007C100.666 449.559 143.913 477.591 187.465 467.504C189.768 466.992 225.889 459.196 225.889 459.196Z" fill="#F4900C"/>
</svg>
