<svg width="116" height="109" viewBox="0 0 116 109" fill="none" xmlns="http://www.w3.org/2000/svg">
<path d="M54.639 1.02759L38.6652 27.3357L54.639 1.02759Z" stroke="black" stroke-miterlimit="10"/>
<path d="M116 42.9272L115.851 43.6579L82.4701 63.1749L80.1175 61.2499V37.0974C80.1175 35.9648 79.653 34.9372 78.901 34.1928C78.1513 33.4484 77.1141 32.9849 75.9757 32.9849C73.6967 32.9849 71.8316 34.8345 71.8316 37.0974V54.4725L38.6628 27.3355L54.639 1.0274L54.7149 1L116 42.9272Z" fill="#0063DE"/>
<path d="M103.874 100.423L34.8338 109L0.0413818 81.3652L38.6628 27.3355L71.8316 54.4725V63.1315C71.8316 65.3922 73.6967 67.2441 75.9757 67.2441C78.2547 67.2441 80.1175 65.3922 80.1175 63.1315V61.2499L82.4701 63.1749L103.874 100.423Z" fill="#00C2FF"/>
<path d="M8.40546 17.1626L0 81.3332L0.041395 81.3652L38.6651 27.3355L8.40546 17.1626Z" fill="#0063DE"/>
<path d="M115.85 43.6602L82.4724 63.1772L103.876 100.423L104.179 100.387L115.85 43.6602Z" fill="#0095FF"/>
<path d="M54.6389 1.02759L8.41459 17.0874L8.4054 17.1627L38.6651 27.3357L54.6389 1.02759Z" fill="#0095FF"/>
<path d="M43.453 32.9849H43.4507C41.1633 32.9849 39.309 34.8262 39.309 37.0975V63.1338C39.309 65.4051 41.1633 67.2464 43.4507 67.2464H43.453C45.7405 67.2464 47.5948 65.4051 47.5948 63.1338V37.0975C47.5948 34.8262 45.7405 32.9849 43.453 32.9849Z" fill="white"/>
<path d="M80.1174 37.0975V63.1315C80.1174 65.3922 78.2546 67.2441 75.9756 67.2441C73.6966 67.2441 71.8315 65.3922 71.8315 63.1315V37.0975C71.8315 34.8345 73.6966 32.9849 75.9756 32.9849C77.114 32.9849 78.1512 33.4484 78.9009 34.1929C79.6529 34.9373 80.1174 35.9649 80.1174 37.0975Z" fill="white"/>
</svg>